<?xml version="1.0" standalone="no"?>
<svg xmlns="http://www.w3.org/2000/svg" version="1.1"
     xmlns:xlink="http://www.w3.org/1999/xlink"
     viewBox="-10 -50 1670 1622">
     <!-- min (01, 01), max (10, 08) -->
  <defs>
    <g id="plain">
      <polygon fill="antiquewhite" points='-100.0,0.0 -50.0,86.6 50.0,86.6 100.0,0.0 50.0,-86.6 -50.0,-86.6' />
    </g>
    <g id="starter">
      <polygon fill="darksalmon" points='-100.0,0.0 -50.0,86.6 50.0,86.6 100.0,0.0 50.0,-86.6 -50.0,-86.6' />
    </g>
  </defs>
  <g id="backgrounds">
    <use x="150.0" y="1125.8" xlink:href="#plain" />
    <use x="300.0" y="1039.2" xlink:href="#plain" />
    <use x="300.0" y="1212.4" xlink:href="#plain" />
    <use x="300.0" y="1385.6" xlink:href="#plain" />
    <use x="450.0" y="952.6" xlink:href="#plain" />
    <use x="450.0" y="1125.8" xlink:href="#plain" />
    <use x="600.0" y="173.2" xlink:href="#plain" />
    <use x="600.0" y="346.4" xlink:href="#starter" />
    <use x="600.0" y="866.0" xlink:href="#plain" />
    <use x="750.0" y="433.0" xlink:href="#plain" />
    <use x="750.0" y="606.2" xlink:href="#plain" />
    <use x="750.0" y="779.4" xlink:href="#plain" />
    <use x="750.0" y="952.6" xlink:href="#plain" />
    <use x="900.0" y="519.6" xlink:href="#plain" />
    <use x="900.0" y="692.8" xlink:href="#plain" />
    <use x="1050.0" y="433.0" xlink:href="#plain" />
    <use x="1050.0" y="606.2" xlink:href="#plain" />
    <use x="1200.0" y="173.2" xlink:href="#plain" />
    <use x="1200.0" y="346.4" xlink:href="#plain" />
    <use x="1200.0" y="519.6" xlink:href="#plain" />
    <use x="1350.0" y="259.8" xlink:href="#plain" />
    <use x="1350.0" y="433.0" xlink:href="#plain" />
    <use x="1500.0" y="173.2" xlink:href="#plain" />
    <use x="1500.0" y="346.4" xlink:href="#plain" />
  </g>
  <g id="lines">
  </g>
  <g id="things">
  </g>
  <g id="coordinates">
    <text text-anchor="middle" x="150.0" y="1056.6" >01.07</text>
    <text text-anchor="middle" x="300.0" y="969.9" >02.06</text>
    <text text-anchor="middle" x="300.0" y="1143.2" >02.07</text>
    <text text-anchor="middle" x="300.0" y="1316.4" >02.08</text>
    <text text-anchor="middle" x="450.0" y="883.3" >03.06</text>
    <text text-anchor="middle" x="450.0" y="1056.6" >03.07</text>
    <text text-anchor="middle" x="600.0" y="103.9" >04.01</text>
    <text text-anchor="middle" x="600.0" y="277.1" >04.02</text>
    <text text-anchor="middle" x="600.0" y="796.7" >04.05</text>
    <text text-anchor="middle" x="750.0" y="363.7" >05.03</text>
    <text text-anchor="middle" x="750.0" y="536.9" >05.04</text>
    <text text-anchor="middle" x="750.0" y="710.1" >05.05</text>
    <text text-anchor="middle" x="750.0" y="883.3" >05.06</text>
    <text text-anchor="middle" x="900.0" y="450.3" >06.03</text>
    <text text-anchor="middle" x="900.0" y="623.5" >06.04</text>
    <text text-anchor="middle" x="1050.0" y="363.7" >07.03</text>
    <text text-anchor="middle" x="1050.0" y="536.9" >07.04</text>
    <text text-anchor="middle" x="1200.0" y="103.9" >08.01</text>
    <text text-anchor="middle" x="1200.0" y="277.1" >08.02</text>
    <text text-anchor="middle" x="1200.0" y="450.3" >08.03</text>
    <text text-anchor="middle" x="1350.0" y="190.5" >09.02</text>
    <text text-anchor="middle" x="1350.0" y="363.7" >09.03</text>
    <text text-anchor="middle" x="1500.0" y="103.9" >10.01</text>
    <text text-anchor="middle" x="1500.0" y="277.1" >10.02</text>
  </g>
  <g id="hexes">
    <polygon id="hex0107" fill="none" stroke="black" stroke-width="3" points="50.0,1125.8 100.0,1212.4 200.0,1212.4 250.0,1125.8 200.0,1039.2 100.0,1039.2" />
    <polygon id="hex0206" fill="none" stroke="black" stroke-width="3" points="200.0,1039.2 250.0,1125.8 350.0,1125.8 400.0,1039.2 350.0,952.6 250.0,952.6" />
    <polygon id="hex0207" fill="none" stroke="black" stroke-width="3" points="200.0,1212.4 250.0,1299.0 350.0,1299.0 400.0,1212.4 350.0,1125.8 250.0,1125.8" />
    <polygon id="hex0208" fill="none" stroke="black" stroke-width="3" points="200.0,1385.6 250.0,1472.2 350.0,1472.2 400.0,1385.6 350.0,1299.0 250.0,1299.0" />
    <polygon id="hex0306" fill="none" stroke="black" stroke-width="3" points="350.0,952.6 400.0,1039.2 500.0,1039.2 550.0,952.6 500.0,866.0 400.0,866.0" />
    <polygon id="hex0307" fill="none" stroke="black" stroke-width="3" points="350.0,1125.8 400.0,1212.4 500.0,1212.4 550.0,1125.8 500.0,1039.2 400.0,1039.2" />
    <polygon id="hex0401" fill="none" stroke="black" stroke-width="3" points="500.0,173.2 550.0,259.8 650.0,259.8 700.0,173.2 650.0,86.6 550.0,86.6" />
    <polygon id="hex0402" fill="none" stroke="black" stroke-width="3" points="500.0,346.4 550.0,433.0 650.0,433.0 700.0,346.4 650.0,259.8 550.0,259.8" />
    <polygon id="hex0405" fill="none" stroke="black" stroke-width="3" points="500.0,866.0 550.0,952.6 650.0,952.6 700.0,866.0 650.0,779.4 550.0,779.4" />
    <polygon id="hex0503" fill="none" stroke="black" stroke-width="3" points="650.0,433.0 700.0,519.6 800.0,519.6 850.0,433.0 800.0,346.4 700.0,346.4" />
    <polygon id="hex0504" fill="none" stroke="black" stroke-width="3" points="650.0,606.2 700.0,692.8 800.0,692.8 850.0,606.2 800.0,519.6 700.0,519.6" />
    <polygon id="hex0505" fill="none" stroke="black" stroke-width="3" points="650.0,779.4 700.0,866.0 800.0,866.0 850.0,779.4 800.0,692.8 700.0,692.8" />
    <polygon id="hex0506" fill="none" stroke="black" stroke-width="3" points="650.0,952.6 700.0,1039.2 800.0,1039.2 850.0,952.6 800.0,866.0 700.0,866.0" />
    <polygon id="hex0603" fill="none" stroke="black" stroke-width="3" points="800.0,519.6 850.0,606.2 950.0,606.2 1000.0,519.6 950.0,433.0 850.0,433.0" />
    <polygon id="hex0604" fill="none" stroke="black" stroke-width="3" points="800.0,692.8 850.0,779.4 950.0,779.4 1000.0,692.8 950.0,606.2 850.0,606.2" />
    <polygon id="hex0703" fill="none" stroke="black" stroke-width="3" points="950.0,433.0 1000.0,519.6 1100.0,519.6 1150.0,433.0 1100.0,346.4 1000.0,346.4" />
    <polygon id="hex0704" fill="none" stroke="black" stroke-width="3" points="950.0,606.2 1000.0,692.8 1100.0,692.8 1150.0,606.2 1100.0,519.6 1000.0,519.6" />
    <polygon id="hex0801" fill="none" stroke="black" stroke-width="3" points="1100.0,173.2 1150.0,259.8 1250.0,259.8 1300.0,173.2 1250.0,86.6 1150.0,86.6" />
    <polygon id="hex0802" fill="none" stroke="black" stroke-width="3" points="1100.0,346.4 1150.0,433.0 1250.0,433.0 1300.0,346.4 1250.0,259.8 1150.0,259.8" />
    <polygon id="hex0803" fill="none" stroke="black" stroke-width="3" points="1100.0,519.6 1150.0,606.2 1250.0,606.2 1300.0,519.6 1250.0,433.0 1150.0,433.0" />
    <polygon id="hex0902" fill="none" stroke="black" stroke-width="3" points="1250.0,259.8 1300.0,346.4 1400.0,346.4 1450.0,259.8 1400.0,173.2 1300.0,173.2" />
    <polygon id="hex0903" fill="none" stroke="black" stroke-width="3" points="1250.0,433.0 1300.0,519.6 1400.0,519.6 1450.0,433.0 1400.0,346.4 1300.0,346.4" />
    <polygon id="hex1001" fill="none" stroke="black" stroke-width="3" points="1400.0,173.2 1450.0,259.8 1550.0,259.8 1600.0,173.2 1550.0,86.6 1450.0,86.6" />
    <polygon id="hex1002" fill="none" stroke="black" stroke-width="3" points="1400.0,346.4 1450.0,433.0 1550.0,433.0 1600.0,346.4 1550.0,259.8 1450.0,259.8" />
  </g>
  <g id="labels">
    <g><text text-anchor="middle" x="150.0" y="1195.1"  >23</text><text text-anchor="middle" x="150.0" y="1195.1" >23</text></g>
    <g><text text-anchor="middle" x="300.0" y="1108.5"  >20</text><text text-anchor="middle" x="300.0" y="1108.5" >20</text></g>
    <g><text text-anchor="middle" x="300.0" y="1281.7"  >21</text><text text-anchor="middle" x="300.0" y="1281.7" >21</text></g>
    <g><text text-anchor="middle" x="300.0" y="1454.9"  >22</text><text text-anchor="middle" x="300.0" y="1454.9" >22</text></g>
    <g><text text-anchor="middle" x="450.0" y="1021.9"  >18</text><text text-anchor="middle" x="450.0" y="1021.9" >18</text></g>
    <g><text text-anchor="middle" x="450.0" y="1195.1"  >19</text><text text-anchor="middle" x="450.0" y="1195.1" >19</text></g>
    <g><text text-anchor="middle" x="600.0" y="242.5"  >1</text><text text-anchor="middle" x="600.0" y="242.5" >1</text></g>
    <g><text text-anchor="middle" x="600.0" y="935.3"  >17</text><text text-anchor="middle" x="600.0" y="935.3" >17</text></g>
    <g><text text-anchor="middle" x="750.0" y="502.3"  >2</text><text text-anchor="middle" x="750.0" y="502.3" >2</text></g>
    <g><text text-anchor="middle" x="750.0" y="675.5"  >4</text><text text-anchor="middle" x="750.0" y="675.5" >4</text></g>
    <g><text text-anchor="middle" x="750.0" y="848.7"  >15</text><text text-anchor="middle" x="750.0" y="848.7" >15</text></g>
    <g><text text-anchor="middle" x="750.0" y="1021.9"  >16</text><text text-anchor="middle" x="750.0" y="1021.9" >16</text></g>
    <g><text text-anchor="middle" x="900.0" y="588.9"  >3</text><text text-anchor="middle" x="900.0" y="588.9" >3</text></g>
    <g><text text-anchor="middle" x="900.0" y="762.1"  >5</text><text text-anchor="middle" x="900.0" y="762.1" >5</text></g>
    <g><text text-anchor="middle" x="1050.0" y="502.3"  >7</text><text text-anchor="middle" x="1050.0" y="502.3" >7</text></g>
    <g><text text-anchor="middle" x="1050.0" y="675.5"  >6</text><text text-anchor="middle" x="1050.0" y="675.5" >6</text></g>
    <g><text text-anchor="middle" x="1200.0" y="242.5"  >10</text><text text-anchor="middle" x="1200.0" y="242.5" >10</text></g>
    <g><text text-anchor="middle" x="1200.0" y="415.7"  >8</text><text text-anchor="middle" x="1200.0" y="415.7" >8</text></g>
    <g><text text-anchor="middle" x="1200.0" y="588.9"  >14</text><text text-anchor="middle" x="1200.0" y="588.9" >14</text></g>
    <g><text text-anchor="middle" x="1350.0" y="329.1"  >9</text><text text-anchor="middle" x="1350.0" y="329.1" >9</text></g>
    <g><text text-anchor="middle" x="1350.0" y="502.3"  >12</text><text text-anchor="middle" x="1350.0" y="502.3" >12</text></g>
    <g><text text-anchor="middle" x="1500.0" y="242.5"  >11</text><text text-anchor="middle" x="1500.0" y="242.5" >11</text></g>
    <g><text text-anchor="middle" x="1500.0" y="415.7"  >13</text><text text-anchor="middle" x="1500.0" y="415.7" >13</text></g>
  </g>
<text>24 hexes, 60 rolls; width: 9, height: 7</text>
<!-- Source
0107 plain "23"
0206 plain "20"
0207 plain "21"
0208 plain "22"
0306 plain "18"
0307 plain "19"
0401 plain "1"
0402 starter
0405 plain "17"
0503 plain "2"
0504 plain "4"
0505 plain "15"
0506 plain "16"
0603 plain "3"
0604 plain "5"
0703 plain "7"
0704 plain "6"
0801 plain "10"
0802 plain "8"
0803 plain "14"
0902 plain "9"
0903 plain "12"
1001 plain "11"
1002 plain "13"
default attributes fill="none" stroke="black" stroke-width="3"
plain attributes fill="antiquewhite"
starter attributes fill="darksalmon"
blank attributes fill="none" stroke="none" stroke-width="0"
license <text>24 hexes, 60 rolls; width: 9, height: 7</text>
-->
</svg>
