<?xml version="1.0" standalone="no"?>
<svg xmlns="http://www.w3.org/2000/svg" version="1.1"
     xmlns:xlink="http://www.w3.org/1999/xlink"
     viewBox="-10 -50 1220 1968">
     <!-- min (01, 01), max (07, 10) -->
  <defs>
    <g id="plain">
      <polygon fill="antiquewhite" points='-100.0,0.0 -50.0,86.6 50.0,86.6 100.0,0.0 50.0,-86.6 -50.0,-86.6' />
    </g>
    <g id="starter">
      <polygon fill="darksalmon" points='-100.0,0.0 -50.0,86.6 50.0,86.6 100.0,0.0 50.0,-86.6 -50.0,-86.6' />
    </g>
  </defs>
  <g id="backgrounds">
    <use x="150.0" y="952.6" xlink:href="#plain" />
    <use x="150.0" y="1125.8" xlink:href="#plain" />
    <use x="150.0" y="1299.0" xlink:href="#plain" />
    <use x="300.0" y="173.2" xlink:href="#plain" />
    <use x="300.0" y="866.0" xlink:href="#plain" />
    <use x="300.0" y="1212.4" xlink:href="#plain" />
    <use x="300.0" y="1385.6" xlink:href="#plain" />
    <use x="450.0" y="259.8" xlink:href="#plain" />
    <use x="450.0" y="433.0" xlink:href="#plain" />
    <use x="450.0" y="606.2" xlink:href="#plain" />
    <use x="450.0" y="779.4" xlink:href="#plain" />
    <use x="450.0" y="952.6" xlink:href="#plain" />
    <use x="450.0" y="1472.2" xlink:href="#plain" />
    <use x="450.0" y="1645.4" xlink:href="#plain" />
    <use x="600.0" y="346.4" xlink:href="#plain" />
    <use x="600.0" y="519.6" xlink:href="#starter" />
    <use x="600.0" y="692.8" xlink:href="#plain" />
    <use x="600.0" y="866.0" xlink:href="#plain" />
    <use x="750.0" y="433.0" xlink:href="#plain" />
    <use x="750.0" y="606.2" xlink:href="#plain" />
    <use x="900.0" y="519.6" xlink:href="#plain" />
    <use x="900.0" y="692.8" xlink:href="#plain" />
    <use x="1050.0" y="433.0" xlink:href="#plain" />
    <use x="1050.0" y="606.2" xlink:href="#plain" />
  </g>
  <g id="lines">
  </g>
  <g id="things">
  </g>
  <g id="coordinates">
    <text text-anchor="middle" x="150.0" y="883.3" >01.06</text>
    <text text-anchor="middle" x="150.0" y="1056.6" >01.07</text>
    <text text-anchor="middle" x="150.0" y="1229.8" >01.08</text>
    <text text-anchor="middle" x="300.0" y="103.9" >02.01</text>
    <text text-anchor="middle" x="300.0" y="796.7" >02.05</text>
    <text text-anchor="middle" x="300.0" y="1143.2" >02.07</text>
    <text text-anchor="middle" x="300.0" y="1316.4" >02.08</text>
    <text text-anchor="middle" x="450.0" y="190.5" >03.02</text>
    <text text-anchor="middle" x="450.0" y="363.7" >03.03</text>
    <text text-anchor="middle" x="450.0" y="536.9" >03.04</text>
    <text text-anchor="middle" x="450.0" y="710.1" >03.05</text>
    <text text-anchor="middle" x="450.0" y="883.3" >03.06</text>
    <text text-anchor="middle" x="450.0" y="1403.0" >03.09</text>
    <text text-anchor="middle" x="450.0" y="1576.2" >03.10</text>
    <text text-anchor="middle" x="600.0" y="277.1" >04.02</text>
    <text text-anchor="middle" x="600.0" y="450.3" >04.03</text>
    <text text-anchor="middle" x="600.0" y="623.5" >04.04</text>
    <text text-anchor="middle" x="600.0" y="796.7" >04.05</text>
    <text text-anchor="middle" x="750.0" y="363.7" >05.03</text>
    <text text-anchor="middle" x="750.0" y="536.9" >05.04</text>
    <text text-anchor="middle" x="900.0" y="450.3" >06.03</text>
    <text text-anchor="middle" x="900.0" y="623.5" >06.04</text>
    <text text-anchor="middle" x="1050.0" y="363.7" >07.03</text>
    <text text-anchor="middle" x="1050.0" y="536.9" >07.04</text>
  </g>
  <g id="hexes">
    <polygon id="hex0106" fill="none" stroke="black" stroke-width="3" points="50.0,952.6 100.0,1039.2 200.0,1039.2 250.0,952.6 200.0,866.0 100.0,866.0" />
    <polygon id="hex0107" fill="none" stroke="black" stroke-width="3" points="50.0,1125.8 100.0,1212.4 200.0,1212.4 250.0,1125.8 200.0,1039.2 100.0,1039.2" />
    <polygon id="hex0108" fill="none" stroke="black" stroke-width="3" points="50.0,1299.0 100.0,1385.6 200.0,1385.6 250.0,1299.0 200.0,1212.4 100.0,1212.4" />
    <polygon id="hex0201" fill="none" stroke="black" stroke-width="3" points="200.0,173.2 250.0,259.8 350.0,259.8 400.0,173.2 350.0,86.6 250.0,86.6" />
    <polygon id="hex0205" fill="none" stroke="black" stroke-width="3" points="200.0,866.0 250.0,952.6 350.0,952.6 400.0,866.0 350.0,779.4 250.0,779.4" />
    <polygon id="hex0207" fill="none" stroke="black" stroke-width="3" points="200.0,1212.4 250.0,1299.0 350.0,1299.0 400.0,1212.4 350.0,1125.8 250.0,1125.8" />
    <polygon id="hex0208" fill="none" stroke="black" stroke-width="3" points="200.0,1385.6 250.0,1472.2 350.0,1472.2 400.0,1385.6 350.0,1299.0 250.0,1299.0" />
    <polygon id="hex0302" fill="none" stroke="black" stroke-width="3" points="350.0,259.8 400.0,346.4 500.0,346.4 550.0,259.8 500.0,173.2 400.0,173.2" />
    <polygon id="hex0303" fill="none" stroke="black" stroke-width="3" points="350.0,433.0 400.0,519.6 500.0,519.6 550.0,433.0 500.0,346.4 400.0,346.4" />
    <polygon id="hex0304" fill="none" stroke="black" stroke-width="3" points="350.0,606.2 400.0,692.8 500.0,692.8 550.0,606.2 500.0,519.6 400.0,519.6" />
    <polygon id="hex0305" fill="none" stroke="black" stroke-width="3" points="350.0,779.4 400.0,866.0 500.0,866.0 550.0,779.4 500.0,692.8 400.0,692.8" />
    <polygon id="hex0306" fill="none" stroke="black" stroke-width="3" points="350.0,952.6 400.0,1039.2 500.0,1039.2 550.0,952.6 500.0,866.0 400.0,866.0" />
    <polygon id="hex0309" fill="none" stroke="black" stroke-width="3" points="350.0,1472.2 400.0,1558.8 500.0,1558.8 550.0,1472.2 500.0,1385.6 400.0,1385.6" />
    <polygon id="hex0310" fill="none" stroke="black" stroke-width="3" points="350.0,1645.4 400.0,1732.1 500.0,1732.1 550.0,1645.4 500.0,1558.8 400.0,1558.8" />
    <polygon id="hex0402" fill="none" stroke="black" stroke-width="3" points="500.0,346.4 550.0,433.0 650.0,433.0 700.0,346.4 650.0,259.8 550.0,259.8" />
    <polygon id="hex0403" fill="none" stroke="black" stroke-width="3" points="500.0,519.6 550.0,606.2 650.0,606.2 700.0,519.6 650.0,433.0 550.0,433.0" />
    <polygon id="hex0404" fill="none" stroke="black" stroke-width="3" points="500.0,692.8 550.0,779.4 650.0,779.4 700.0,692.8 650.0,606.2 550.0,606.2" />
    <polygon id="hex0405" fill="none" stroke="black" stroke-width="3" points="500.0,866.0 550.0,952.6 650.0,952.6 700.0,866.0 650.0,779.4 550.0,779.4" />
    <polygon id="hex0503" fill="none" stroke="black" stroke-width="3" points="650.0,433.0 700.0,519.6 800.0,519.6 850.0,433.0 800.0,346.4 700.0,346.4" />
    <polygon id="hex0504" fill="none" stroke="black" stroke-width="3" points="650.0,606.2 700.0,692.8 800.0,692.8 850.0,606.2 800.0,519.6 700.0,519.6" />
    <polygon id="hex0603" fill="none" stroke="black" stroke-width="3" points="800.0,519.6 850.0,606.2 950.0,606.2 1000.0,519.6 950.0,433.0 850.0,433.0" />
    <polygon id="hex0604" fill="none" stroke="black" stroke-width="3" points="800.0,692.8 850.0,779.4 950.0,779.4 1000.0,692.8 950.0,606.2 850.0,606.2" />
    <polygon id="hex0703" fill="none" stroke="black" stroke-width="3" points="950.0,433.0 1000.0,519.6 1100.0,519.6 1150.0,433.0 1100.0,346.4 1000.0,346.4" />
    <polygon id="hex0704" fill="none" stroke="black" stroke-width="3" points="950.0,606.2 1000.0,692.8 1100.0,692.8 1150.0,606.2 1100.0,519.6 1000.0,519.6" />
  </g>
  <g id="labels">
    <g><text text-anchor="middle" x="150.0" y="1021.9"  >17</text><text text-anchor="middle" x="150.0" y="1021.9" >17</text></g>
    <g><text text-anchor="middle" x="150.0" y="1195.1"  >18</text><text text-anchor="middle" x="150.0" y="1195.1" >18</text></g>
    <g><text text-anchor="middle" x="150.0" y="1368.3"  >20</text><text text-anchor="middle" x="150.0" y="1368.3" >20</text></g>
    <g><text text-anchor="middle" x="300.0" y="242.5"  >9</text><text text-anchor="middle" x="300.0" y="242.5" >9</text></g>
    <g><text text-anchor="middle" x="300.0" y="935.3"  >15</text><text text-anchor="middle" x="300.0" y="935.3" >15</text></g>
    <g><text text-anchor="middle" x="300.0" y="1281.7"  >19</text><text text-anchor="middle" x="300.0" y="1281.7" >19</text></g>
    <g><text text-anchor="middle" x="300.0" y="1454.9"  >21</text><text text-anchor="middle" x="300.0" y="1454.9" >21</text></g>
    <g><text text-anchor="middle" x="450.0" y="329.1"  >8</text><text text-anchor="middle" x="450.0" y="329.1" >8</text></g>
    <g><text text-anchor="middle" x="450.0" y="502.3"  >4</text><text text-anchor="middle" x="450.0" y="502.3" >4</text></g>
    <g><text text-anchor="middle" x="450.0" y="675.5"  >3</text><text text-anchor="middle" x="450.0" y="675.5" >3</text></g>
    <g><text text-anchor="middle" x="450.0" y="848.7"  >13</text><text text-anchor="middle" x="450.0" y="848.7" >13</text></g>
    <g><text text-anchor="middle" x="450.0" y="1021.9"  >14</text><text text-anchor="middle" x="450.0" y="1021.9" >14</text></g>
    <g><text text-anchor="middle" x="450.0" y="1541.5"  >22</text><text text-anchor="middle" x="450.0" y="1541.5" >22</text></g>
    <g><text text-anchor="middle" x="450.0" y="1714.7"  >23</text><text text-anchor="middle" x="450.0" y="1714.7" >23</text></g>
    <g><text text-anchor="middle" x="600.0" y="415.7"  >7</text><text text-anchor="middle" x="600.0" y="415.7" >7</text></g>
    <g><text text-anchor="middle" x="600.0" y="762.1"  >1</text><text text-anchor="middle" x="600.0" y="762.1" >1</text></g>
    <g><text text-anchor="middle" x="600.0" y="935.3"  >6</text><text text-anchor="middle" x="600.0" y="935.3" >6</text></g>
    <g><text text-anchor="middle" x="750.0" y="502.3"  >5</text><text text-anchor="middle" x="750.0" y="502.3" >5</text></g>
    <g><text text-anchor="middle" x="750.0" y="675.5"  >2</text><text text-anchor="middle" x="750.0" y="675.5" >2</text></g>
    <g><text text-anchor="middle" x="900.0" y="588.9"  >10</text><text text-anchor="middle" x="900.0" y="588.9" >10</text></g>
    <g><text text-anchor="middle" x="900.0" y="762.1"  >12</text><text text-anchor="middle" x="900.0" y="762.1" >12</text></g>
    <g><text text-anchor="middle" x="1050.0" y="502.3"  >16</text><text text-anchor="middle" x="1050.0" y="502.3" >16</text></g>
    <g><text text-anchor="middle" x="1050.0" y="675.5"  >11</text><text text-anchor="middle" x="1050.0" y="675.5" >11</text></g>
  </g>
<text>24 hexes, 70 rolls; width: 6, height: 9</text>
<!-- Source
0106 plain "17"
0107 plain "18"
0108 plain "20"
0201 plain "9"
0205 plain "15"
0207 plain "19"
0208 plain "21"
0302 plain "8"
0303 plain "4"
0304 plain "3"
0305 plain "13"
0306 plain "14"
0309 plain "22"
0310 plain "23"
0402 plain "7"
0403 starter
0404 plain "1"
0405 plain "6"
0503 plain "5"
0504 plain "2"
0603 plain "10"
0604 plain "12"
0703 plain "16"
0704 plain "11"
default attributes fill="none" stroke="black" stroke-width="3"
plain attributes fill="antiquewhite"
starter attributes fill="darksalmon"
blank attributes fill="none" stroke="none" stroke-width="0"
license <text>24 hexes, 70 rolls; width: 6, height: 9</text>
-->
</svg>
