<?xml version="1.0" standalone="no"?>
<svg xmlns="http://www.w3.org/2000/svg" version="1.1"
     xmlns:xlink="http://www.w3.org/1999/xlink"
     viewBox="-10 -50 1070 1622">
     <!-- min (01, 01), max (06, 08) -->
  <defs>
    <g id="plain">
      <polygon fill="antiquewhite" points='-100.0,0.0 -50.0,86.6 50.0,86.6 100.0,0.0 50.0,-86.6 -50.0,-86.6' />
    </g>
    <g id="starter">
      <polygon fill="darksalmon" points='-100.0,0.0 -50.0,86.6 50.0,86.6 100.0,0.0 50.0,-86.6 -50.0,-86.6' />
    </g>
  </defs>
  <g id="backgrounds">
    <use x="150.0" y="779.4" xlink:href="#plain" />
    <use x="300.0" y="346.4" xlink:href="#plain" />
    <use x="300.0" y="866.0" xlink:href="#plain" />
    <use x="300.0" y="1039.2" xlink:href="#plain" />
    <use x="450.0" y="433.0" xlink:href="#plain" />
    <use x="450.0" y="606.2" xlink:href="#plain" />
    <use x="450.0" y="952.6" xlink:href="#plain" />
    <use x="450.0" y="1125.8" xlink:href="#plain" />
    <use x="450.0" y="1299.0" xlink:href="#plain" />
    <use x="600.0" y="346.4" xlink:href="#starter" />
    <use x="600.0" y="519.6" xlink:href="#plain" />
    <use x="600.0" y="692.8" xlink:href="#plain" />
    <use x="600.0" y="866.0" xlink:href="#plain" />
    <use x="600.0" y="1039.2" xlink:href="#plain" />
    <use x="750.0" y="259.8" xlink:href="#plain" />
    <use x="750.0" y="433.0" xlink:href="#plain" />
    <use x="750.0" y="606.2" xlink:href="#plain" />
    <use x="750.0" y="779.4" xlink:href="#plain" />
    <use x="750.0" y="952.6" xlink:href="#plain" />
    <use x="750.0" y="1125.8" xlink:href="#plain" />
    <use x="750.0" y="1299.0" xlink:href="#plain" />
    <use x="900.0" y="173.2" xlink:href="#plain" />
    <use x="900.0" y="519.6" xlink:href="#plain" />
    <use x="900.0" y="692.8" xlink:href="#plain" />
  </g>
  <g id="lines">
  </g>
  <g id="things">
  </g>
  <g id="coordinates">
    <text text-anchor="middle" x="150.0" y="710.1" >01.05</text>
    <text text-anchor="middle" x="300.0" y="277.1" >02.02</text>
    <text text-anchor="middle" x="300.0" y="796.7" >02.05</text>
    <text text-anchor="middle" x="300.0" y="969.9" >02.06</text>
    <text text-anchor="middle" x="450.0" y="363.7" >03.03</text>
    <text text-anchor="middle" x="450.0" y="536.9" >03.04</text>
    <text text-anchor="middle" x="450.0" y="883.3" >03.06</text>
    <text text-anchor="middle" x="450.0" y="1056.6" >03.07</text>
    <text text-anchor="middle" x="450.0" y="1229.8" >03.08</text>
    <text text-anchor="middle" x="600.0" y="277.1" >04.02</text>
    <text text-anchor="middle" x="600.0" y="450.3" >04.03</text>
    <text text-anchor="middle" x="600.0" y="623.5" >04.04</text>
    <text text-anchor="middle" x="600.0" y="796.7" >04.05</text>
    <text text-anchor="middle" x="600.0" y="969.9" >04.06</text>
    <text text-anchor="middle" x="750.0" y="190.5" >05.02</text>
    <text text-anchor="middle" x="750.0" y="363.7" >05.03</text>
    <text text-anchor="middle" x="750.0" y="536.9" >05.04</text>
    <text text-anchor="middle" x="750.0" y="710.1" >05.05</text>
    <text text-anchor="middle" x="750.0" y="883.3" >05.06</text>
    <text text-anchor="middle" x="750.0" y="1056.6" >05.07</text>
    <text text-anchor="middle" x="750.0" y="1229.8" >05.08</text>
    <text text-anchor="middle" x="900.0" y="103.9" >06.01</text>
    <text text-anchor="middle" x="900.0" y="450.3" >06.03</text>
    <text text-anchor="middle" x="900.0" y="623.5" >06.04</text>
  </g>
  <g id="hexes">
    <polygon id="hex0105" fill="none" stroke="black" stroke-width="3" points="50.0,779.4 100.0,866.0 200.0,866.0 250.0,779.4 200.0,692.8 100.0,692.8" />
    <polygon id="hex0202" fill="none" stroke="black" stroke-width="3" points="200.0,346.4 250.0,433.0 350.0,433.0 400.0,346.4 350.0,259.8 250.0,259.8" />
    <polygon id="hex0205" fill="none" stroke="black" stroke-width="3" points="200.0,866.0 250.0,952.6 350.0,952.6 400.0,866.0 350.0,779.4 250.0,779.4" />
    <polygon id="hex0206" fill="none" stroke="black" stroke-width="3" points="200.0,1039.2 250.0,1125.8 350.0,1125.8 400.0,1039.2 350.0,952.6 250.0,952.6" />
    <polygon id="hex0303" fill="none" stroke="black" stroke-width="3" points="350.0,433.0 400.0,519.6 500.0,519.6 550.0,433.0 500.0,346.4 400.0,346.4" />
    <polygon id="hex0304" fill="none" stroke="black" stroke-width="3" points="350.0,606.2 400.0,692.8 500.0,692.8 550.0,606.2 500.0,519.6 400.0,519.6" />
    <polygon id="hex0306" fill="none" stroke="black" stroke-width="3" points="350.0,952.6 400.0,1039.2 500.0,1039.2 550.0,952.6 500.0,866.0 400.0,866.0" />
    <polygon id="hex0307" fill="none" stroke="black" stroke-width="3" points="350.0,1125.8 400.0,1212.4 500.0,1212.4 550.0,1125.8 500.0,1039.2 400.0,1039.2" />
    <polygon id="hex0308" fill="none" stroke="black" stroke-width="3" points="350.0,1299.0 400.0,1385.6 500.0,1385.6 550.0,1299.0 500.0,1212.4 400.0,1212.4" />
    <polygon id="hex0402" fill="none" stroke="black" stroke-width="3" points="500.0,346.4 550.0,433.0 650.0,433.0 700.0,346.4 650.0,259.8 550.0,259.8" />
    <polygon id="hex0403" fill="none" stroke="black" stroke-width="3" points="500.0,519.6 550.0,606.2 650.0,606.2 700.0,519.6 650.0,433.0 550.0,433.0" />
    <polygon id="hex0404" fill="none" stroke="black" stroke-width="3" points="500.0,692.8 550.0,779.4 650.0,779.4 700.0,692.8 650.0,606.2 550.0,606.2" />
    <polygon id="hex0405" fill="none" stroke="black" stroke-width="3" points="500.0,866.0 550.0,952.6 650.0,952.6 700.0,866.0 650.0,779.4 550.0,779.4" />
    <polygon id="hex0406" fill="none" stroke="black" stroke-width="3" points="500.0,1039.2 550.0,1125.8 650.0,1125.8 700.0,1039.2 650.0,952.6 550.0,952.6" />
    <polygon id="hex0502" fill="none" stroke="black" stroke-width="3" points="650.0,259.8 700.0,346.4 800.0,346.4 850.0,259.8 800.0,173.2 700.0,173.2" />
    <polygon id="hex0503" fill="none" stroke="black" stroke-width="3" points="650.0,433.0 700.0,519.6 800.0,519.6 850.0,433.0 800.0,346.4 700.0,346.4" />
    <polygon id="hex0504" fill="none" stroke="black" stroke-width="3" points="650.0,606.2 700.0,692.8 800.0,692.8 850.0,606.2 800.0,519.6 700.0,519.6" />
    <polygon id="hex0505" fill="none" stroke="black" stroke-width="3" points="650.0,779.4 700.0,866.0 800.0,866.0 850.0,779.4 800.0,692.8 700.0,692.8" />
    <polygon id="hex0506" fill="none" stroke="black" stroke-width="3" points="650.0,952.6 700.0,1039.2 800.0,1039.2 850.0,952.6 800.0,866.0 700.0,866.0" />
    <polygon id="hex0507" fill="none" stroke="black" stroke-width="3" points="650.0,1125.8 700.0,1212.4 800.0,1212.4 850.0,1125.8 800.0,1039.2 700.0,1039.2" />
    <polygon id="hex0508" fill="none" stroke="black" stroke-width="3" points="650.0,1299.0 700.0,1385.6 800.0,1385.6 850.0,1299.0 800.0,1212.4 700.0,1212.4" />
    <polygon id="hex0601" fill="none" stroke="black" stroke-width="3" points="800.0,173.2 850.0,259.8 950.0,259.8 1000.0,173.2 950.0,86.6 850.0,86.6" />
    <polygon id="hex0603" fill="none" stroke="black" stroke-width="3" points="800.0,519.6 850.0,606.2 950.0,606.2 1000.0,519.6 950.0,433.0 850.0,433.0" />
    <polygon id="hex0604" fill="none" stroke="black" stroke-width="3" points="800.0,692.8 850.0,779.4 950.0,779.4 1000.0,692.8 950.0,606.2 850.0,606.2" />
  </g>
  <g id="labels">
    <g><text text-anchor="middle" x="150.0" y="848.7"  >14</text><text text-anchor="middle" x="150.0" y="848.7" >14</text></g>
    <g><text text-anchor="middle" x="300.0" y="415.7"  >2</text><text text-anchor="middle" x="300.0" y="415.7" >2</text></g>
    <g><text text-anchor="middle" x="300.0" y="935.3"  >13</text><text text-anchor="middle" x="300.0" y="935.3" >13</text></g>
    <g><text text-anchor="middle" x="300.0" y="1108.5"  >12</text><text text-anchor="middle" x="300.0" y="1108.5" >12</text></g>
    <g><text text-anchor="middle" x="450.0" y="502.3"  >1</text><text text-anchor="middle" x="450.0" y="502.3" >1</text></g>
    <g><text text-anchor="middle" x="450.0" y="675.5"  >3</text><text text-anchor="middle" x="450.0" y="675.5" >3</text></g>
    <g><text text-anchor="middle" x="450.0" y="1021.9"  >11</text><text text-anchor="middle" x="450.0" y="1021.9" >11</text></g>
    <g><text text-anchor="middle" x="450.0" y="1195.1"  >9</text><text text-anchor="middle" x="450.0" y="1195.1" >9</text></g>
    <g><text text-anchor="middle" x="450.0" y="1368.3"  >10</text><text text-anchor="middle" x="450.0" y="1368.3" >10</text></g>
    <g><text text-anchor="middle" x="600.0" y="588.9"  >4</text><text text-anchor="middle" x="600.0" y="588.9" >4</text></g>
    <g><text text-anchor="middle" x="600.0" y="762.1"  >5</text><text text-anchor="middle" x="600.0" y="762.1" >5</text></g>
    <g><text text-anchor="middle" x="600.0" y="935.3"  >6</text><text text-anchor="middle" x="600.0" y="935.3" >6</text></g>
    <g><text text-anchor="middle" x="600.0" y="1108.5"  >7</text><text text-anchor="middle" x="600.0" y="1108.5" >7</text></g>
    <g><text text-anchor="middle" x="750.0" y="329.1"  >21</text><text text-anchor="middle" x="750.0" y="329.1" >21</text></g>
    <g><text text-anchor="middle" x="750.0" y="502.3"  >20</text><text text-anchor="middle" x="750.0" y="502.3" >20</text></g>
    <g><text text-anchor="middle" x="750.0" y="675.5"  >18</text><text text-anchor="middle" x="750.0" y="675.5" >18</text></g>
    <g><text text-anchor="middle" x="750.0" y="848.7"  >16</text><text text-anchor="middle" x="750.0" y="848.7" >16</text></g>
    <g><text text-anchor="middle" x="750.0" y="1021.9"  >8</text><text text-anchor="middle" x="750.0" y="1021.9" >8</text></g>
    <g><text text-anchor="middle" x="750.0" y="1195.1"  >15</text><text text-anchor="middle" x="750.0" y="1195.1" >15</text></g>
    <g><text text-anchor="middle" x="750.0" y="1368.3"  >23</text><text text-anchor="middle" x="750.0" y="1368.3" >23</text></g>
    <g><text text-anchor="middle" x="900.0" y="242.5"  >22</text><text text-anchor="middle" x="900.0" y="242.5" >22</text></g>
    <g><text text-anchor="middle" x="900.0" y="588.9"  >19</text><text text-anchor="middle" x="900.0" y="588.9" >19</text></g>
    <g><text text-anchor="middle" x="900.0" y="762.1"  >17</text><text text-anchor="middle" x="900.0" y="762.1" >17</text></g>
  </g>
<text>24 hexes, 80 rolls; width: 5, height: 7</text>
<!-- Source
0105 plain "14"
0202 plain "2"
0205 plain "13"
0206 plain "12"
0303 plain "1"
0304 plain "3"
0306 plain "11"
0307 plain "9"
0308 plain "10"
0402 starter
0403 plain "4"
0404 plain "5"
0405 plain "6"
0406 plain "7"
0502 plain "21"
0503 plain "20"
0504 plain "18"
0505 plain "16"
0506 plain "8"
0507 plain "15"
0508 plain "23"
0601 plain "22"
0603 plain "19"
0604 plain "17"
default attributes fill="none" stroke="black" stroke-width="3"
plain attributes fill="antiquewhite"
starter attributes fill="darksalmon"
blank attributes fill="none" stroke="none" stroke-width="0"
license <text>24 hexes, 80 rolls; width: 5, height: 7</text>
-->
</svg>
